<svg width="173" height="48" viewBox="0 0 173 48" fill="none" xmlns="http://www.w3.org/2000/svg">
<g clip-path="url(#clip0_4171_717)">
<path d="M53.0546 12.6916C54.4891 12.6916 55.9257 12.6936 57.3622 12.6893C57.3578 14.0215 57.3622 15.3539 57.3622 16.6883C55.9234 16.6404 54.4824 16.6796 53.0459 16.6469C53.0806 15.3299 53.0742 14.0106 53.0546 12.6916Z" fill="#032A4A"/>
<path d="M58.8232 12.6935C60.4076 12.6915 61.9919 12.687 63.5764 12.6957C64.5283 16.0622 65.6822 19.3657 66.6972 22.7126C67.4861 25.125 68.1099 27.5937 69.0052 29.9714C70.1353 26.3877 71.1896 22.78 72.3782 19.2157C72.9695 17.0185 73.8799 14.917 74.3755 12.6935C75.9447 12.6915 77.5159 12.6915 79.0873 12.6935C77.6508 16.649 76.3533 20.6522 74.9319 24.6143C73.7279 27.9351 72.7543 31.345 71.4784 34.6376C71.4132 34.6874 71.285 34.7918 71.2198 34.8441C69.6355 34.9004 68.047 34.8332 66.4604 34.8702C65.4236 32.1686 64.589 29.3932 63.5938 26.6766C61.9986 22.0171 60.2533 17.4097 58.8232 12.6935Z" fill="#032A4A"/>
<path d="M123.865 12.6919C125.249 12.6961 126.633 12.6939 128.018 12.6919C128.027 20.0834 128.005 27.4726 128.022 34.8619C126.649 34.8619 125.275 34.8641 123.902 34.8597C123.886 34.0489 123.888 33.2384 123.856 32.4277C123.282 33.8709 121.852 34.8076 120.363 35.09C118.401 35.6355 116.245 35.0704 114.647 33.8555C112.674 32.2018 112.087 29.4938 112.1 27.0335C112.031 24.9603 112.222 22.7281 113.448 20.9809C114.558 19.2595 116.575 18.1316 118.64 18.236C120.596 18.1904 122.852 18.7314 123.865 20.5788C123.867 17.9491 123.895 15.3193 123.865 12.6919ZM118.953 21.748C117.388 22.1502 116.48 23.7583 116.421 25.2928C116.393 27.066 116.18 29.0374 117.269 30.5696C118.725 32.3929 121.898 32.2214 123.165 30.2652C124.101 28.8549 123.821 27.1032 123.854 25.5058C123.801 24.2038 123.326 22.6999 122.05 22.1152C121.133 21.5328 119.979 21.4698 118.953 21.748Z" fill="#032A4A"/>
<path d="M82.7202 18.4614C85.3672 17.8701 88.373 18.1743 90.5007 19.9892C92.8001 21.8016 93.3022 24.9335 93.2152 27.6891C89.4423 27.6913 85.6717 27.6827 81.8988 27.6936C81.9444 28.9955 82.3161 30.3797 83.3071 31.2839C84.5133 32.3922 86.5757 32.2402 87.7015 31.0925C88.1035 30.6906 88.2884 30.1363 88.5034 29.6235C89.9052 30.1494 91.4114 30.2406 92.8675 30.5233C92.1458 32.54 90.5203 34.2374 88.4404 34.8416C86.1889 35.6719 83.6612 35.387 81.514 34.396C79.5342 33.3636 78.2953 31.3035 77.7955 29.1802C77.4804 27.3437 77.2413 25.4247 77.7759 23.6034C78.4193 21.1996 80.3666 19.2307 82.7202 18.4614ZM82.6181 22.5298C82.1421 23.2079 82.0292 24.0531 81.8726 24.8487C84.1459 24.8465 86.4192 24.8616 88.6948 24.8401C88.4882 23.912 88.2123 22.96 87.582 22.2233C86.241 20.9259 83.7787 21.041 82.6181 22.5298Z" fill="#032A4A"/>
<path d="M136.107 18.2088C138.311 17.9219 140.676 18.2001 142.597 19.3867C143.803 20.1843 144.925 21.2363 145.461 22.6077C146.498 25.1961 146.415 28.1649 145.398 30.7447C144.551 32.8157 142.686 34.4045 140.539 35.002C139.241 35.3781 137.866 35.3608 136.531 35.2433C134.364 34.8783 132.148 33.8112 130.998 31.8574C129.594 29.5796 129.359 26.7435 129.909 24.1659C130.544 21.1689 133.041 18.6479 136.107 18.2088ZM136.975 21.4753C135.549 21.7667 134.558 23.0445 134.288 24.4245C133.93 26.1328 133.982 27.9562 134.525 29.621C134.995 31.0618 136.481 31.9898 137.957 32.0181C138.894 31.9117 139.815 31.5227 140.461 30.8206C141.473 29.8318 141.662 28.3452 141.845 27.0108C141.828 25.5983 141.704 24.0703 140.834 22.8968C139.982 21.7124 138.389 21.1168 136.975 21.4753Z" fill="#032A4A"/>
<path d="M99.1902 20.7498C100.298 19.3044 102.013 18.3438 103.852 18.3265C105.504 18.2179 107.258 18.6545 108.486 19.8087C109.435 20.7997 109.976 22.1754 109.959 23.551C110.009 27.3219 109.983 31.0925 109.979 34.8631C108.59 34.8544 107.201 34.8567 105.812 34.8631C105.797 31.7423 105.836 28.6215 105.799 25.5005C105.699 24.6139 105.788 23.6142 105.206 22.8709C104.115 21.4299 101.79 21.4646 100.462 22.5449C99.5641 23.4186 99.3119 24.7334 99.2923 25.9419C99.2663 28.9149 99.2901 31.8879 99.2792 34.8611C97.9036 34.8567 96.5279 34.8589 95.1543 34.8611C95.1761 29.4278 95.1543 23.9946 95.161 18.5613C96.4996 18.5655 97.8407 18.5524 99.1815 18.57C99.2988 19.2915 99.2532 20.0239 99.1902 20.7498Z" fill="#032A4A"/>
<path d="M153.626 19.4244C154.734 18.6203 156.143 18.3528 157.488 18.4116C157.547 19.7177 157.479 21.0261 157.525 22.3345C155.667 22.0714 153.571 22.8712 152.75 24.6425C152.163 25.7141 152.341 26.955 152.313 28.1263C152.302 30.3671 152.326 32.6077 152.311 34.8483C150.879 34.8659 149.444 34.8723 148.014 34.8463C147.999 29.4195 148.032 23.9904 148.008 18.5616C149.377 18.5594 150.744 18.5616 152.113 18.5616C152.118 19.4482 152.105 20.3371 152.122 21.2262C152.587 20.5979 152.974 19.8829 153.626 19.4244Z" fill="#032A4A"/>
<path d="M53.0653 18.5609C54.4954 18.5587 55.9255 18.5609 57.3576 18.5587C57.3641 23.9942 57.3598 29.4275 57.3598 34.8608C55.9255 34.8521 54.491 34.8672 53.0566 34.8563C53.0698 29.4253 53.0631 23.9942 53.0653 18.5609Z" fill="#032A4A"/>
<path d="M159.18 18.5716C163.42 18.5825 167.662 18.6021 171.905 18.5587C171.907 19.8517 171.959 21.1472 171.892 22.4402C171.34 23.1879 170.657 23.8311 170.047 24.531C168.18 26.8586 166.008 28.9254 164.229 31.3292C166.95 31.3138 169.67 31.3269 172.394 31.3269C172.376 32.5049 172.394 33.6828 172.385 34.8608C167.821 34.8477 163.259 34.8759 158.695 34.8499C158.728 33.8718 158.663 32.8939 158.732 31.918C160.469 29.6251 162.462 27.5323 164.25 25.2763C165.224 24.1333 166.239 23.0248 167.21 21.8796C164.533 21.8622 161.853 21.8838 159.176 21.8751C159.176 20.7733 159.162 19.6715 159.18 18.5716Z" fill="#032A4A"/>
<path d="M21.8579 1.0496C21.9264 0.537657 22.3466 0.0526754 22.8982 0.108614C24.7065 0.0995677 26.5148 0.103256 28.3231 0.110456C28.8044 0.0635639 29.2479 0.395322 29.3597 0.862214C29.6031 1.77994 29.6374 2.73716 29.8159 3.66744C30.0736 3.93421 30.4774 3.98295 30.8056 4.13267C32.1775 4.68061 33.6127 5.14769 34.8188 6.03107C35.6843 5.62713 36.4432 5.03396 37.2816 4.58332C37.6096 4.35624 37.9901 4.55267 38.2678 4.76184C39.4486 5.60923 40.4998 6.61871 41.5399 7.63021C41.9276 8.01791 42.3964 8.35317 42.6524 8.85071C42.802 9.15551 42.5533 9.44756 42.4198 9.70898C41.9673 10.4175 41.5237 11.1333 41.0874 11.8525C41.9474 13.5959 42.7228 15.4042 43.0093 17.3406C44.0928 17.5714 45.1981 17.7246 46.26 18.0492C46.7522 18.1933 46.9251 18.7503 46.891 19.2156C46.8838 20.8382 46.8873 22.4644 46.8604 24.0887C46.8604 24.5864 46.4167 24.9019 45.9714 24.9955C45.1421 25.2606 44.2569 25.3706 43.462 25.7258C42.6487 27.5323 41.8231 29.3351 40.9955 31.1362C41.493 31.9801 42.18 32.6993 42.6469 33.5593C42.9083 34.1055 42.3766 34.5743 42.0321 34.9276C40.8855 36.0023 39.8579 37.2137 38.6265 38.1927C38.0136 38.6975 37.3698 38.0395 36.8616 37.7113C36.5389 37.4373 36.0539 37.2643 35.8916 36.8641C35.9511 36.3375 36.1693 35.8472 36.3225 35.346C37.0868 33.0852 37.7919 30.8044 38.5418 28.5401C40.0471 24.3863 40.3844 19.6177 38.4967 15.5268C37.2816 12.956 35.3651 10.6483 32.8338 9.29064C30.7082 8.04135 28.2238 7.54178 25.7791 7.52572C22.3141 7.66086 18.8904 9.03292 16.3663 11.4253C13.6349 13.8988 12.0952 17.5514 11.9961 21.2131C11.9492 22.6483 12.2773 24.0652 12.7534 25.4103C13.0796 26.2594 13.552 27.0418 13.9288 27.8694C21.1224 27.9811 28.3213 27.9073 35.5183 27.947C36.0934 27.8947 36.5208 28.4247 36.6687 28.926C36.7551 29.4163 36.4992 29.8814 36.3657 30.3412C35.7203 32.1187 35.1362 33.9181 34.5033 35.7012C34.3375 36.1483 34.1662 36.6458 33.7407 36.9145C33.4235 37.1399 33.0124 37.1183 32.6428 37.1434C27.3548 37.129 22.0652 37.1127 16.7756 37.1127C16.3303 37.0911 15.8597 37.1489 15.4379 36.9776C15.0087 36.7919 14.8104 36.3429 14.6662 35.9319C13.2941 31.7402 11.8429 27.5755 10.4385 23.3947C9.95703 21.9109 8.58681 20.7353 7.02737 20.5623C6.13124 20.5173 5.23531 20.5514 4.34103 20.5101C4.42577 19.6699 4.00928 18.4854 4.85131 17.9319C5.82478 17.5802 6.90663 17.7337 7.90004 17.4342C8.18841 17.0377 8.22626 16.5167 8.38134 16.0586C8.74725 14.5424 9.54054 13.1687 9.97512 11.6777C9.61272 10.9655 9.04835 10.3832 8.6374 9.70344C8.38134 9.2888 8.51832 8.74086 8.85912 8.41981C9.96238 7.24252 11.1362 6.1339 12.2738 4.99076C12.5839 4.69519 12.9914 4.26061 13.4601 4.50763C14.3651 4.98726 15.1277 5.69027 16.0004 6.2275C17.6915 5.19458 19.5484 4.50043 21.418 3.87126C21.5621 2.93009 21.6794 1.98356 21.8579 1.0496Z" fill="#E1A60C"/>
<path d="M30.757 11.0882C31.6116 11.0631 32.4679 11.0756 33.3243 11.0756C33.6091 16.1995 33.9409 21.3214 34.0472 26.4524C28.1752 26.4578 22.3015 26.4596 16.4277 26.4434C16.4637 24.2295 16.4421 22.0156 16.4366 19.8033C18.308 18.2889 20.2552 16.8683 22.1608 15.3971C22.168 16.6863 22.1501 17.9753 22.1861 19.2661C23.9944 18.015 25.7179 16.6448 27.4938 15.3484C27.4594 16.6088 27.4631 17.8689 27.5172 19.1291C28.1752 19.1489 28.8333 19.1363 29.4913 19.1454C29.9277 16.4609 30.3387 13.7727 30.757 11.0882ZM19.4438 22.1238C19.4349 22.8177 19.4222 23.5119 19.4528 24.206C20.2136 24.1483 20.9818 24.2132 21.7389 24.1051C21.7029 23.4524 21.7443 22.8017 21.7533 22.1489C20.9835 22.1201 20.2136 22.1328 19.4438 22.1238ZM24.1692 22.1273C24.1657 22.843 24.1692 23.5588 24.1674 24.2745C24.8868 24.2745 25.6079 24.2692 26.3274 24.2817C26.329 23.566 26.3218 22.8502 26.3218 22.1345C25.6044 22.1328 24.8868 22.131 24.1692 22.1273ZM28.8568 22.2464C28.8586 22.9224 28.8568 23.5966 28.8568 24.2727C29.5744 24.2745 30.2918 24.2727 31.0112 24.2745C31.0094 23.5931 31.0094 22.9134 31.0094 22.232C30.2918 22.2445 29.5744 22.2571 28.8568 22.2464Z" fill="#032A4A"/>
<path d="M1.348 22.3972C2.93996 22.2908 4.54279 22.3828 6.13824 22.3468C7.48316 22.3108 8.75239 23.2392 9.13824 24.5228C10.5356 28.9165 12.0103 33.2849 13.5066 37.6442C13.7861 38.3727 14.5163 38.9424 15.3203 38.8756C21.7567 38.8756 28.1948 38.8828 34.631 38.8721C35.2405 38.7764 35.7777 39.375 35.7958 39.9556C35.9075 40.6135 35.2657 41.2355 34.6257 41.2195C28.0704 41.2248 21.5169 41.2158 14.9616 41.2248C13.2958 41.2518 11.6713 40.1629 11.1269 38.571C9.67547 34.3918 8.32519 30.1785 6.95497 25.9724C6.81614 25.5109 6.51319 24.9465 5.95805 24.9574C4.42187 24.8815 2.87867 25.0132 1.34619 24.9033C0.109418 24.696 0.0733622 22.5523 1.348 22.3972Z" fill="#032A4A"/>
<path d="M15.5978 42.5772C16.3642 42.294 17.251 42.3536 17.9812 42.7177C18.6807 43.2008 19.3226 43.9275 19.3226 44.8271C19.4795 45.7934 19.0503 46.8409 18.2319 47.3872C17.5575 47.7405 16.7607 48.0326 15.9999 47.8001C14.7504 47.6595 13.7932 46.4244 13.8761 45.1877C13.8202 44.0735 14.5666 42.9809 15.5978 42.5772Z" fill="#032A4A"/>
<path d="M29.4647 42.5469C30.4003 42.2602 31.5363 42.3215 32.2609 43.0463C33.6654 44.1495 33.4365 46.6411 31.8769 47.4885C31.0169 47.9969 29.9028 48.0456 29.0266 47.5479C27.0182 46.6104 27.3427 43.1633 29.4647 42.5469Z" fill="#032A4A"/>
</g>
<defs>
<clipPath id="clip0_4171_717">
<rect width="172.8" height="48" fill="white"/>
</clipPath>
</defs>
</svg>
